<svg xmlns="http://www.w3.org/2000/svg" width="128" height="128" viewBox="0 0 128 128"><defs><linearGradient id="g" x1="0" x2="1"><stop stop-color="#f1c36b"/><stop offset="1" stop-color="#8b5b24"/></linearGradient></defs><rect x="4" y="4" width="120" height="120" rx="18" fill="none" stroke="#0a1420" stroke-width="8"/><rect x="6" y="6" width="116" height="116" rx="16" fill="none" stroke="url(#g)" stroke-width="3"/><path d="M18 6h20l-8 8H18v12l-8 8V18q0-12 8-12Zm72 0h20q12 0 12 12v16l-8-8V14h-12l-12-8ZM10 94l8 8h12l8 8H18q-12 0-12-12V82l4 12Zm108-12v16q0 12-12 12H90l12-8h12V90l4-8Z" fill="url(#g)" opacity=".85"/></svg>